# xmcd
#
# Track frame offsets:
#	150
#	23607
#	40434
#	56202
#	80464
#	97011
#	112223
#	128470
#	145134
#	173883
#	189482
#	206746
#	231654
#	245425
#	262780
#	280792
#	310955
#
# Disc length: 4383
#
# Revision: 2
# Processed by: cddbd v1.5.1PL0 Copyright (c) Steve Scherf et al.
# Submitted via: audiograbber 1.82.01
# Normalized: r1:DSETVAR1
#
DISCID=f6111d11
DTITLE=Various Artist - The Best 4
DYEAR=1900
DGENRE=
TTITLE0=DJ Red 5 - Da Bass (Remix)
TTITLE1=Dr. Motte - One World one Futurre
TTITLE2=Dons - Pump up the Jam
TTITLE3=Jam and Spoon - I null my Gunitwice
TTITLE4=Lollies - Wahnsinn
TTITLE5=Bass Bumpers - Keep me Running
TTITLE6=Tripple S. - Keep your Head
TTITLE7=Interactive - No Return
TTITLE8=Robotnico - Backfire
TTITLE9=Insane - Jump on Dis
TTITLE10=Beam and Yanou - Onyva
TTITLE11=Tom Wax and Jan Jarta - Return to Classics
TTITLE12=ML King - New York
TTITLE13=TNA Pumpkin - Take me
TTITLE14=Central Seven - The God of House
TTITLE15=Dons - Loaded
TTITLE16=DJ Red 5 - Da Bass
EXTD=
EXTT0=
EXTT1=
EXTT2=
EXTT3=
EXTT4=
EXTT5=
EXTT6=
EXTT7=
EXTT8=
EXTT9=
EXTT10=
EXTT11=
EXTT12=
EXTT13=
EXTT14=
EXTT15=
EXTT16=
PLAYORDER=
